<svg width="10" height="17" viewBox="0 0 10 17" fill="none" xmlns="http://www.w3.org/2000/svg">
<path d="M9.25753 6.78939H7.70569H7.14381V6.23245V4.5351V3.97816H7.70569H8.88294C9.17726 3.97816 9.41806 3.73947 9.41806 3.44774V0.530421C9.41806 0.23869 9.17726 0 8.88294 0H6.8495C4.65552 0 3.13043 1.56474 3.13043 3.81903V6.23245V6.78939H2.56856H0.722408C0.32107 6.78939 0 7.10764 0 7.53198V9.49454C0 9.89236 0.32107 10.2106 0.722408 10.2106H2.56856H3.13043V10.7676V16.2839C3.13043 16.6817 3.4515 17 3.85284 17H6.47492C6.63545 17 6.79599 16.9204 6.90301 16.8144C7.03679 16.6817 7.0903 16.4961 7.0903 16.337V10.741V10.1841H7.67893H8.9097C9.25752 10.1841 9.55184 9.9454 9.60535 9.62715V9.60063V9.5741L9.97993 7.69111C10.0334 7.47894 9.97993 7.26677 9.8194 7.0546C9.71237 6.922 9.49833 6.81591 9.25753 6.78939Z" fill="#3B5998"/>
</svg>
