<svg width="18" height="18" viewBox="0 0 18 18" fill="none" xmlns="http://www.w3.org/2000/svg">
<path fill-rule="evenodd" clip-rule="evenodd" d="M18 9.20456C18 8.56637 17.9416 7.95274 17.833 7.36365H9.18369V10.845H14.1262C13.9133 11.97 13.2662 12.9232 12.2936 13.5614V15.8196H15.2616C16.9982 14.2527 18 11.9455 18 9.20456Z" fill="#4285F4"/>
<path fill-rule="evenodd" clip-rule="evenodd" d="M9.18367 18C11.6633 18 13.7421 17.1941 15.2616 15.8195L12.2936 13.5614C11.4712 14.1014 10.4193 14.4204 9.18367 14.4204C6.79174 14.4204 4.76716 12.8373 4.04499 10.71H0.976807V13.0418C2.48794 15.9832 5.59369 18 9.18367 18Z" fill="#34A853"/>
<path fill-rule="evenodd" clip-rule="evenodd" d="M4.04499 10.71C3.86132 10.17 3.75696 9.59319 3.75696 9.00001C3.75696 8.40683 3.86132 7.83001 4.04499 7.29001V4.95819H0.976809C0.354824 6.17319 0 7.54774 0 9.00001C0 10.4523 0.354824 11.8268 0.976809 13.0418L4.04499 10.71Z" fill="#FBBC05"/>
<path fill-rule="evenodd" clip-rule="evenodd" d="M9.18367 3.57955C10.532 3.57955 11.7426 4.03364 12.6943 4.92545L15.3284 2.34409C13.7379 0.891818 11.6591 0 9.18367 0C5.59369 0 2.48794 2.01682 0.976807 4.95818L4.04499 7.29C4.76716 5.16273 6.79174 3.57955 9.18367 3.57955Z" fill="#EA4335"/>
</svg>
